<svg width="24" height="24" viewBox="0 0 24 24" fill="none" xmlns="http://www.w3.org/2000/svg">
<path fill-rule="evenodd" clip-rule="evenodd" d="M3.9897 16.8538L2.67591 20.3573C2.44981 20.9602 3.03858 21.549 3.6415 21.3229L7.14496 20.0091C7.54594 19.8587 7.91009 19.6242 8.21291 19.3214L18.36 9.17437C18.36 9.17437 18.0064 8.11371 16.9458 7.05305C15.8851 5.99239 14.8244 5.63884 14.8244 5.63884L4.67737 15.7859C4.37455 16.0887 4.14007 16.4529 3.9897 16.8538ZM16.2386 4.22462L17.6224 2.84087C17.8705 2.59274 18.2009 2.43488 18.5471 2.49226C19.0338 2.57294 19.7785 2.81471 20.4813 3.51752C21.1841 4.22032 21.4259 4.96504 21.5065 5.45174C21.5639 5.79792 21.4061 6.12828 21.1579 6.3764L19.7742 7.76016C19.7742 7.76016 19.4206 6.6995 18.36 5.63884C17.2993 4.57818 16.2386 4.22462 16.2386 4.22462Z" fill="#8585AD"/>
</svg>
